<svg width="28" height="29" xmlns="http://www.w3.org/2000/svg" xmlns:svg="http://www.w3.org/2000/svg">
  <g>
    <title>Layer 1</title>
    <g id="svg_1" fill-rule="evenodd" fill="#ffffff">
      <g id="SteemLogo">
        <path fill="#ffffff" id="Fill-1" d="m4.22924,3.23196c-0.28435,-0.14192 -3.89137,2.83953 -3.89137,5.03304c-0.00498,2.99811 4.20746,9.79028 4.9168,12.41755c0.6104,2.25336 -1.03538,4.95777 -0.58303,5.08056c0.41316,0.26532 4.34312,-3.71447 4.49618,-5.41128c0.19725,-2.70194 -4.58889,-10.58068 -4.97031,-12.615c-0.4424,-2.3743 0.35031,-4.45181 0.03173,-4.50487l0,0l0,0z"/>
        <path fill="#ffffff" id="Fill-2" d="m13.23218,0.13019c-0.36214,-0.18079 -4.96347,3.6176 -4.96347,6.41826c-0.00498,3.82306 5.36667,12.48542 6.27076,15.83276c0.77777,2.87347 -1.31974,6.32262 -0.74605,6.47688c0.53014,0.33689 5.53902,-4.73379 5.73627,-6.90077c0.25262,-3.44421 -5.85325,-13.48994 -6.3392,-16.08821c-0.56373,-3.02032 0.44489,-5.67166 0.04169,-5.73892l0,0l0,0z"/>
        <path fill="#ffffff" id="Fill-3" d="m22.52382,3.23196c-0.28186,-0.14192 -3.89138,2.83953 -3.89138,5.03304c-0.00435,2.99811 4.20747,9.79028 4.91743,12.41755c0.60977,2.25336 -1.03538,4.95777 -0.58365,5.08056c0.41565,0.26532 4.34622,-3.71447 4.4968,-5.41128c0.19662,-2.70194 -4.58889,-10.58068 -4.97093,-12.615c-0.44178,-2.3743 0.35031,-4.45181 0.03173,-4.50487l0,0z"/>
      </g>
    </g>
  </g>
</svg>