<?xml version="1.0" encoding="UTF-8"?>
<svg width="87px" height="29px" viewBox="0 0 87 29" version="1.1" xmlns="http://www.w3.org/2000/svg" xmlns:xlink="http://www.w3.org/1999/xlink">
    <!-- Generator: Sketch 46.2 (44496) - http://www.bohemiancoding.com/sketch -->
    <title>steem-icon-typo copy</title>
    <desc>Created with Sketch.</desc>
    <defs></defs>
    <g id="Page-1" stroke="none" stroke-width="1" fill="none" fill-rule="evenodd">
        <g id="steem-icon-typo-copy" fill-rule="nonzero" fill="#FFFFFF">
            <g id="Page-1">
                <path d="M3.95437881,3.23195745 C3.67117217,3.09004255 0.0787237714,6.07148936 0.0787237714,8.265 C0.0737661056,11.2631064 4.26919057,18.0552766 4.97565792,20.6825532 C5.58359165,22.9359149 3.94446348,25.6403191 4.39499133,25.7631064 C4.80647758,26.0284255 8.72055453,22.0486383 8.87300274,20.3518298 C9.06945024,17.6498936 4.30265481,9.77114894 3.92277369,7.73682979 C3.48216117,5.36253191 4.2716694,3.28502128 3.95437881,3.23195745 L3.95437881,3.23195745 Z" id="Fill-1"></path>
                <path d="M12.9209367,0.130191489 C12.5602664,-0.0505957447 7.9775244,3.74778723 7.9775244,6.54844681 C7.97256673,10.3715106 13.3225076,19.0338723 14.2229436,22.3812128 C14.9975788,25.2546809 12.9085425,28.7038298 13.4799134,28.8580851 C14.0079049,29.1949787 18.9965557,24.1242979 19.1930033,21.9573191 C19.4446048,18.5131064 13.3634083,8.46738298 12.8794162,5.86910638 C12.3179606,2.84878723 13.3225076,0.197446809 12.9209367,0.130191489 L12.9209367,0.130191489 Z" id="Fill-2"></path>
                <path d="M22.1750391,3.23195745 C21.8943113,3.09004255 18.299384,6.07148936 18.299384,8.265 C18.2950461,11.2631064 22.4898509,18.0552766 23.1969379,20.6825532 C23.8042519,22.9359149 22.1657435,25.6403191 22.6156516,25.7631064 C23.0296167,26.0284255 26.9443133,22.0486383 27.0942827,20.3518298 C27.2901105,17.6498936 22.5239348,9.77114894 22.143434,7.73682979 C21.7034412,5.36253191 22.4923297,3.28502128 22.1750391,3.23195745 L22.1750391,3.23195745 Z" id="Fill-3"></path>
            </g>
            <path d="M46.2998475,16.465 C46.2998475,13.228 41.2891747,14.229 41.2891747,12.63 C41.2891747,11.993 41.8459162,11.564 42.7263444,11.564 C43.4255081,11.564 44.1376192,11.746 44.7461505,12.149 C44.8756253,12.24 45.0180475,12.279 45.1604697,12.279 C45.5359465,12.279 45.9114232,11.967 45.9114232,11.564 C45.9114232,11.421 45.8596333,11.265 45.7560535,11.148 C45.1863646,10.524 43.8916172,10.199 42.8558192,10.199 C40.9525404,10.199 39.7095828,11.304 39.7095828,12.747 C39.7095828,15.945 44.733203,14.827 44.733203,16.621 C44.733203,17.18 44.241199,17.791 43.0241364,17.791 C42.1178131,17.791 41.3539121,17.466 40.7583283,17.011 C40.641801,16.92 40.4864313,16.881 40.3440091,16.881 C39.9555848,16.881 39.606003,17.219 39.606003,17.622 C39.606003,17.778 39.6577929,17.921 39.7613727,18.051 C40.3440091,18.74 41.6905465,19.156 42.959399,19.156 C45.2899444,19.156 46.2998475,17.921 46.2998475,16.465 L46.2998475,16.465 Z M55.8401444,11.018 C55.8401444,10.628 55.5294051,10.329 55.1668758,10.329 L49.5994616,10.329 C49.2239848,10.329 48.9261929,10.628 48.9261929,10.992 C48.9261929,11.395 49.2239848,11.694 49.5994616,11.694 L51.6063202,11.694 L51.6063202,18.311 C51.6063202,18.727 51.9429545,19.078 52.3702212,19.078 C52.8104354,19.078 53.1600172,18.727 53.1600172,18.311 L53.1600172,11.694 L55.1668758,11.694 C55.5294051,11.694 55.8401444,11.395 55.8401444,11.018 L55.8401444,11.018 Z M65.0308596,18.298 C65.0308596,17.934 64.7330677,17.635 64.3705384,17.635 L60.5639808,17.635 L60.5639808,15.269 L64.2799061,15.269 C64.6424354,15.269 64.9402273,14.97 64.9402273,14.593 C64.9402273,14.203 64.6424354,13.904 64.2799061,13.904 L60.5639808,13.904 L60.5639808,11.694 L64.3705384,11.694 C64.7330677,11.694 65.0308596,11.395 65.0308596,11.018 C65.0308596,10.628 64.7330677,10.329 64.3705384,10.329 L59.9554495,10.329 C59.4375505,10.329 59.0232313,10.758 59.0232313,11.265 L59.0232313,18.064 C59.0232313,18.571 59.4375505,19 59.9554495,19 L64.3705384,19 C64.7330677,19 65.0308596,18.701 65.0308596,18.298 L65.0308596,18.298 Z M74.5064192,18.298 C74.5064192,17.934 74.2086273,17.635 73.846098,17.635 L70.0395404,17.635 L70.0395404,15.269 L73.7554657,15.269 C74.1179949,15.269 74.4157869,14.97 74.4157869,14.593 C74.4157869,14.203 74.1179949,13.904 73.7554657,13.904 L70.0395404,13.904 L70.0395404,11.694 L73.846098,11.694 C74.2086273,11.694 74.5064192,11.395 74.5064192,11.018 C74.5064192,10.628 74.2086273,10.329 73.846098,10.329 L69.4310091,10.329 C68.9131101,10.329 68.4987909,10.758 68.4987909,11.265 L68.4987909,18.064 C68.4987909,18.571 68.9131101,19 69.4310091,19 L73.846098,19 C74.2086273,19 74.5064192,18.701 74.5064192,18.298 L74.5064192,18.298 Z M86.9857929,18.311 L86.9857929,11.278 C86.9857929,10.576 86.3125242,10.225 85.6133606,10.303 C85.1213566,10.303 84.6940899,10.589 84.5128253,11.031 L82.4671242,16.062 L80.4343707,11.031 C80.1883687,10.446 79.6057323,10.251 78.9454111,10.303 C78.4145646,10.303 77.9743505,10.745 77.9743505,11.278 L77.9743505,18.311 C77.9743505,18.727 78.3109848,19.078 78.725304,19.078 C79.1655182,19.078 79.5151,18.727 79.5151,18.311 L79.5151,12.513 L82.0528051,18.805 C82.1175424,18.961 82.2858596,19.078 82.4541768,19.078 C82.6613364,19.078 82.8167061,18.961 82.8814434,18.805 L85.432096,12.513 L85.432096,18.311 C85.432096,18.727 85.7687303,19.078 86.195997,19.078 C86.6362111,19.078 86.9857929,18.727 86.9857929,18.311 L86.9857929,18.311 Z" id="steem"></path>
        </g>
    </g>
</svg>