<?xml version="1.0" encoding="utf-8"?>
<!-- Generator: Adobe Illustrator 15.1.0, SVG Export Plug-In . SVG Version: 6.00 Build 0)  -->
<!DOCTYPE svg PUBLIC "-//W3C//DTD SVG 1.1//EN" "http://www.w3.org/Graphics/SVG/1.1/DTD/svg11.dtd">
<svg version="1.1" id="Layer_1" xmlns="http://www.w3.org/2000/svg" xmlns:xlink="http://www.w3.org/1999/xlink" x="0px" y="0px"
	 width="512px" height="512px" viewBox="0 0 512 512" enable-background="new 0 0 512 512" xml:space="preserve">
<g>
	<path opacity="0.8" fill="#F7F7F7" d="M176.896,34.47c-76.503,0-138.745,62.241-138.745,138.747
		c0,76.507,62.242,138.747,138.745,138.747c76.506,0,138.746-62.24,138.746-138.747C315.643,96.711,253.403,34.47,176.896,34.47z
		 M211.779,284.634c-14.637,5.135-30.538,7.309-46.313,5.977c-15.788-1.147-31.41-5.806-45.512-13.385
		c-14.15-7.613-26.557-18.121-36.607-30.907c-4.773-6.141-9.207-13.116-12.758-20.249c-3.525-7.212-6.384-14.754-8.374-22.514
		c-3.973-15.509-4.788-31.79-2.109-47.398c2.487-15.639,8.399-30.561,16.896-43.546c8.63-12.893,19.786-23.922,32.754-31.587
		c-21.289,21.228-33.975,48.73-36.035,76.785c-2.044,28.082,6.35,56.01,23.592,77.849c8.341,10.703,18.948,20.071,30.806,27.083
		c11.886,7.081,25.165,11.867,38.995,14.307c27.739,4.721,57.492-1.026,83.182-16.635
		C239.74,271.157,226.362,279.348,211.779,284.634z"/>
	<path fill="#4DAEC4" d="M493.905,431.643c5.966,5.966,6.543,15.069,1.277,20.329l-42.538,42.539
		c-5.258,5.263-14.361,4.69-20.328-1.28L245.035,305.953c-5.966-5.969-6.542-15.072-1.28-20.331l42.539-42.54
		c5.266-5.263,14.362-4.689,20.335,1.28L493.905,431.643z"/>
	<path fill="#4DAEC4" d="M176.896,334.908c-89.154,0-161.688-72.535-161.688-161.691c0-89.155,72.535-161.69,161.688-161.69
		c89.157,0,161.688,72.535,161.688,161.69C338.585,262.373,266.054,334.908,176.896,334.908z M176.896,50.192
		c-67.834,0-123.024,55.189-123.024,123.025c0,67.836,55.19,123.025,123.024,123.025c67.835,0,123.024-55.189,123.024-123.025
		C299.921,105.381,244.732,50.192,176.896,50.192z"/>
</g>
</svg>
